HIERARCHY
ROOT Hips
{
	OFFSET 0.000000 8.830580 0.000000
	CHANNELS 6 Xposition Yposition Zposition Zrotation Yrotation Xrotation 
	JOINT Spine
	{
		OFFSET 0.000000 0.010000 0.000000
		CHANNELS 3 Zrotation Yrotation Xrotation
		JOINT Spine1
		{
			OFFSET 0.000000 2.459130 0.000000
			CHANNELS 3 Zrotation Yrotation Xrotation
			JOINT Neck
			{
				OFFSET 0.000000 2.484630 0.000000
				CHANNELS 3 Zrotation Yrotation Xrotation
				JOINT Head_virtual
				{
					OFFSET 0.000000 0.000000 0.000000
					CHANNELS 3 Zrotation Yrotation Xrotation
					JOINT Head
					{
						OFFSET 0.000000 0.927525 0.000000
						CHANNELS 3 Zrotation Yrotation Xrotation
						End Site
						{
							OFFSET 0.000000 0.000000 0.000000
						}
					}
				}
				JOINT LeftUpArm_virtual
				{
					OFFSET 0.000000 0.000000 0.000000
					CHANNELS 3 Zrotation Yrotation Xrotation
					JOINT LeftUpArm
					{
						OFFSET 1.248820 0.000000 0.000000
						CHANNELS 3 Zrotation Yrotation Xrotation
						JOINT LeftForeArm
						{
							OFFSET 2.597580 0.000000 0.000000
							CHANNELS 3 Zrotation Yrotation Xrotation
							JOINT LeftHand
							{
								OFFSET 2.455420 0.000000 0.000000
								CHANNELS 3 Zrotation Yrotation Xrotation
								End Site
								{
									OFFSET 0.000000 0.000000 0.000000
								}
							}
						}
					}
				}
				JOINT RightUpArm_virtual
				{
					OFFSET -0.000000 -0.000000 -0.000000
					CHANNELS 3 Zrotation Yrotation Xrotation
					JOINT RightUpArm
					{
						OFFSET -1.248820 -0.000000 -0.000000
						CHANNELS 3 Zrotation Yrotation Xrotation
						JOINT RightForeArm
						{
							OFFSET -2.597580 -0.000000 -0.000000
							CHANNELS 3 Zrotation Yrotation Xrotation
							JOINT RightHand
							{
								OFFSET -2.455420 -0.000000 -0.000000
								CHANNELS 3 Zrotation Yrotation Xrotation
								End Site
								{
									OFFSET 0.000000 0.000000 0.000000
								}
							}
						}
					}
				}
			}
		}
	}
	JOINT LeftUpLeg
	{
		OFFSET 1.271939 0.000000 0.000000
		CHANNELS 3 Zrotation Yrotation Xrotation
		JOINT LeftLowLeg
		{
			OFFSET 0.000000 -4.342910 0.000000
			CHANNELS 3 Zrotation Yrotation Xrotation
			JOINT LeftFoot
			{
				OFFSET 0.000000 -4.487670 0.000000
				CHANNELS 3 Zrotation Yrotation Xrotation
				JOINT LeftToeBase
				{
					OFFSET 0.000000 0.000000 1.515070
					CHANNELS 3 Zrotation Yrotation Xrotation
					End Site
					{
						OFFSET 0.000000 0.000000 0.000000
					}
				}
			}
		}
	}
	JOINT RightUpLeg
	{
		OFFSET -1.271939 0.000000 0.000000
		CHANNELS 3 Zrotation Yrotation Xrotation
		JOINT RightLowLeg
		{
			OFFSET 0.000000 -4.342910 0.000000
			CHANNELS 3 Zrotation Yrotation Xrotation
			JOINT RightFoot
			{
				OFFSET 0.000000 -4.487670 0.000000
				CHANNELS 3 Zrotation Yrotation Xrotation
				JOINT RightToeBase
				{
					OFFSET 0.000000 0.000000 1.515070
					CHANNELS 3 Zrotation Yrotation Xrotation
					End Site
					{
						OFFSET 0.000000 0.000000 0.000000
					}
				}
			}
		}
	}
}
MOTION
Frames: 5
Frame Time: 0.041667
-18.790861 9.245061 40.501560 -175.504245 -0.672029 -176.536838 3.708224 -2.723270 -5.655398 -0.384592 -2.952485 2.650010 0.000000 0.000000 0.000000 -1.431747 4.247812 2.517426 5.581891 7.692433 -48.950548 -0.705055 13.662700 -2.814350 -11.826100 -3.294160 -32.238300 0.000000 -20.353701 0.000000 32.138100 5.603360 22.121599 8.693780 -10.411000 0.134881 6.832250 1.751540 -37.094898 0.000000 20.014400 0.000000 -20.007601 -1.249540 25.263700 4.872262 3.607664 -1.727404 0.000000 0.000000 6.796290 0.356333 0.376400 7.598385 0.000000 0.000000 -24.978430 3.643664 5.717459 -0.242674 0.000000 0.000000 7.142450 6.660071 -7.728333 9.819998 0.000000 0.000000 -27.662800 
-18.791000 9.244931 40.500571 -175.503309 -0.681086 -176.536584 3.707115 -2.724352 -5.660268 -0.377018 -2.953275 2.653877 0.000000 0.000000 0.000000 -1.441689 4.250515 2.507836 5.585705 7.682630 -48.958422 -0.711041 13.665000 -2.815060 -11.848200 -3.276670 -32.432701 0.000000 -20.370300 0.000000 32.026501 5.430460 22.226000 8.688950 -10.408200 0.143924 6.823080 1.720980 -37.033798 0.000000 20.049101 0.000000 -20.033600 -1.292000 25.186100 4.873589 3.591137 -1.729637 0.000000 0.000000 6.823130 0.337100 0.391667 7.598569 0.000000 0.000000 -25.173000 3.644639 5.704322 -0.236442 0.000000 0.000000 7.143130 6.656139 -7.725753 9.813447 0.000000 0.000000 -27.658100 
-18.792298 9.244627 40.500917 -175.494190 -0.588371 -176.498506 3.731056 -2.653933 -5.641290 -0.387369 -2.887325 2.606221 0.000000 0.000000 0.000000 -1.458980 4.253488 2.480745 5.603334 7.663922 -48.989109 -0.750798 13.676300 -2.827600 -11.818000 -3.300920 -32.417599 0.000000 -20.386999 0.000000 32.050701 5.369820 22.296499 8.695540 -10.435400 0.116849 6.820380 1.731420 -37.164700 0.000000 20.055300 0.000000 -19.977600 -1.213060 25.473900 4.865437 3.639071 -1.752585 0.000000 0.000000 6.836820 0.347252 0.447412 7.573462 0.000000 0.000000 -25.178200 3.633692 5.853489 -0.320120 0.000000 0.000000 7.210960 6.709517 -7.749247 9.787853 0.000000 0.000000 -27.654900 
-18.792419 9.244599 40.499921 -175.490503 -0.585748 -176.454501 3.734266 -2.651700 -5.683255 -0.390568 -2.885275 2.607147 0.000000 0.000000 0.000000 -1.495353 4.291110 2.476908 5.649050 7.650464 -49.013160 -0.767140 13.692300 -2.836980 -11.786100 -3.284770 -32.299999 0.000000 -20.398100 0.000000 32.052200 5.395400 22.332899 8.701710 -10.445900 0.094875 6.831320 1.753110 -37.186699 0.000000 20.073400 0.000000 -19.971500 -1.237090 25.426300 4.866532 3.636183 -1.793111 0.000000 0.000000 6.843560 0.357358 0.453014 7.565088 0.000000 0.000000 -25.185100 3.633419 5.854794 -0.361744 0.000000 0.000000 7.218170 6.700398 -7.750856 9.784782 0.000000 0.000000 -27.650700 
-18.792784 9.244454 40.497554 -175.491485 -0.582639 -176.456242 3.724468 -2.647754 -5.688713 -0.392661 -2.879759 2.616987 0.000000 0.000000 0.000000 -1.483962 4.282270 2.475972 5.629738 7.661622 -49.021011 -0.773803 13.703600 -2.834190 -11.784500 -3.274120 -32.352798 0.000000 -20.386499 0.000000 32.064899 5.380070 22.302500 8.710390 -10.472000 0.080200 6.838300 1.803570 -37.180401 0.000000 20.054701 0.000000 -19.998600 -1.267570 25.499599 4.863950 3.604154 -1.769952 0.000000 0.000000 6.833490 0.346209 0.482845 7.552850 0.000000 0.000000 -25.177800 3.633775 5.875983 -0.347004 0.000000 0.000000 7.221210 6.689224 -7.770701 9.772528 0.000000 0.000000 -27.680900 
